# AST/ASF file generated using VICON BodyLanguage
# -----------------------------------------------
:version 1.10
:name VICON
:units
  mass 1.0
  length 0.45
  angle deg
:documentation
   .ast/.asf automatically generated from VICON data using
   VICON BodyBuilder and BodyLanguage model FoxedUp or BRILLIANT.MOD
:root
   order TX TY TZ RX RY RZ
   axis XYZ
   position 0 0 0  
   orientation 0 0 0 
:bonedata
  begin
     id 1 
     name lhipjoint
     direction 0.624716 -0.669793 0.401383 
     length 2.38238 
     axis 0 0 0  XYZ
  end
  begin
     id 2 
     name lfemur
     direction 0.34202 -0.939693 0  
     length 6.4574  
     axis 0 0 20  XYZ
    dof rx ry rz
    limits (-160.0 20.0)
           (-70.0 70.0)
           (-60.0 70.0)
  end
  begin
     id 3 
     name ltibia
     direction 0.34202 -0.939693 0   
     length 7.68739   
     axis 0 0 20   XYZ
    dof rx
    limits (-10.0 170.0)
  end
  begin
     id 4 
     name lfoot
     direction 0.0681309 -0.187188 0.979959   
     length 2.46615   
     axis -90 7.62852e-016 20   XYZ
    dof rx rz
    limits (-45.0 90.0)
           (-70.0 20.0)
  end
  begin
     id 5 
     name ltoes
     direction 1.53566e-011 -4.21819e-011 1   
     length 1.2376   
     axis -90 7.62852e-016 20   XYZ
    dof rx
    limits (-90.0 20.0)
  end
  begin
     id 6 
     name rhipjoint
     direction -0.644473 -0.655875 0.393043   
     length 2.43293  
     axis 0 0 0  XYZ 
  end
  begin
     id 7 
     name rfemur
     direction -0.34202 -0.939693 0   
     length 6.7025   
     axis 0 0 -20   XYZ
    dof rx ry rz
    limits (-160.0 20.0)
           (-70.0 70.0)
           (-70.0 60.0)
  end
  begin
     id 8 
     name rtibia
     direction -0.34202 -0.939693 0   
     length 7.80547   
     axis 0 0 -20   XYZ
    dof rx
    limits (-10.0 170.0)
 end
 begin
     id 9 
     name rfoot
     direction -0.0756734 -0.207911 0.975216   
     length 2.40315  
     axis -90 -7.62852e-016 -20   XYZ
    dof rx rz
    limits (-45.0 90.0)
           (-20.0 70.0)
  end
  begin
     id 10 
     name rtoes
     direction -1.5353e-011 -4.21879e-011 1   
     length 1.20477   
     axis -90 -7.62852e-016 -20   XYZ
    dof rx
    limits (-90.0 20.0)
  end
  begin
     id 11 
     name lowerback
     direction 0.0160353 0.987463 -0.157037   
     length 2.18572   
     axis 0 0 0   XYZ
    dof rx ry rz
    limits (-20.0 45.0)
           (-30.0 30.0)
           (-30.0 30.0)
  end
  begin
     id 12 
     name upperback
     direction -0.00499661 0.999756 0.0215076   
     length 2.18016   
     axis 0 0 0   XYZ
    dof rx ry rz
    limits (-20.0 45.0)
           (-30.0 30.0)
           (-30.0 30.0)
  end
  begin
     id 13 
     name thorax
     direction -0.00921346 0.995333 0.0960619   
     length 2.24923   
     axis 0 0 0   XYZ
    dof rx ry rz
    limits (-20.0 45.0)
           (-30.0 30.0)
           (-30.0 30.0)
  end
  begin
     id 14 
     name lowerneck
     direction 0.0274184 0.991181 0.12965   
     length 1.70911   
     axis 0 0 0   XYZ
    dof rx ry rz
    limits (-20.0 45.0)
           (-30.0 30.0)
           (-30.0 30.0)
  end
  begin
     id 15 
     name upperneck
     direction 0.0015627 0.999959 -0.00893559   
     length 1.69312   
     axis 0 0 0   XYZ
    dof rx ry rz
    limits (-20.0 45.0)
           (-30.0 30.0)
           (-30.0 30.0)
  end
  begin
     id 16
     name head
     direction -0.00230242 0.999856 -0.0168327  
     length 1.80241  
     axis 0 0 0   XYZ
    dof rx ry rz
    limits (-20.0 45.0)
           (-30.0 30.0)
           (-30.0 30.0)
  end
  begin
     id 17 
     name lclavicle
     direction 0.955523 0.290741 -0.0494489  
     length 3.84275  
     axis 0 0 0   XYZ
    dof ry rz
    limits (-20.0 10.0)
           (0.0 20.0)
  end
  begin
     id 18 
     name lhumerus
     direction 1 -4.48967e-011 -3.18382e-028   
     length 5.17714   
     axis 180 -30 -90   XYZ
    dof rx ry rz
    limits (-60.0 90.0)
           (-90.0 90.0)
           (-90.0 90.0)
  end
  begin
     id 19
     name lradius
     direction 1 -4.48968e-011 -2.22911e-027   
     length 3.43679   
     axis 180 -30 -90   XYZ
    dof rx
    limits (-10.0 170.0)
  end
  begin
     id 20
     name lwrist
     direction 1 -4.48951e-011 -6.32245e-027   
     length 1.7184   
     axis 3.57107e-015 90 90   XYZ
    dof ry
    limits (-180.0 0.0)
 end
  begin
     id 21 
     name lhand
     direction 1 -4.48924e-011 -1.26431e-026   
     length 0.573117   
     axis 8.06912e-015 90 90   XYZ
    dof rx rz
    limits (-90.0 90.0)
           (-45.0 45.0)
  end
  begin
     id 22 
     name lfingers
     direction 1 -4.49001e-011 -2.52965e-026   
     length 0.462062   
     axis 1.61381e-014 90 90   XYZ
    dof rx
    limits (0.0 90.0)
  end
  begin
     id 23
     name lthumb
     direction 0.707107 -6.35008e-011 0.707107   
     length 0.663431   
     axis -90 45 -1.62303e-014   XYZ
    dof rx rz
    limits (-45.0 45.0)
           (-45.0 45.0)
  end
  begin
     id 24 
     name rclavicle
     direction -0.963917 0.256881 -0.0698287   
     length 3.73057  
     axis 0 0 0   XYZ 
    dof ry rz
    limits (-10.0 20.0)
           (-20.0 0.0)
  end
  begin
     id 25 
     name rhumerus
     direction -1 -4.48962e-011 -2.73982e-027  
     length 5.23908   
     axis 180 30 90   XYZ
    dof rx ry rz
    limits (-90.0 60.0)
           (-90.0 90.0)
           (-90.0 90.0)
  end
  begin
     id 26 
     name rradius
     direction -1 -4.48968e-011 -4.33218e-027   
     length 3.46485   
     axis 180 30 90   XYZ
    dof rx
    limits (-10.0 170.0)
  end
  begin
     id 27 
     name rwrist
     direction -1 -4.48989e-011 -6.32372e-027   
     length 1.73243   
     axis 3.57107e-015 -90 -90   XYZ
    dof ry
    limits (-180.0 0.0)
  end
  begin
     id 28
     name rhand
     direction -1 -4.48948e-011 -1.26448e-026   
     length 0.608752   
     axis 8.06912e-015 -90 -90   XYZ
    dof rx rz
    limits (-90.0 90.0)
           (-45.0 45.0)
  end
  begin
     id 29
     name rfingers
     direction -1 -4.48962e-011 -2.52913e-026   
     length 0.490792   
     axis 1.61381e-014 -90 -90   XYZ
    dof rx
    limits (0.0 90.0)
  end
  begin
     id 30
     name rthumb
     direction -0.707107 -6.34878e-011 0.707107   
     length 0.704682   
     axis -90 -45 1.62303e-014   XYZ
    dof rx rz
    limits (-45.0 45.0)
           (-45.0 45.0)
  end
:hierarchy
  begin
    root lhipjoint rhipjoint lowerback
    lhipjoint lfemur
    lfemur ltibia
    ltibia lfoot
    lfoot ltoes
    rhipjoint rfemur
    rfemur rtibia
    rtibia rfoot
    rfoot rtoes
    lowerback upperback
    upperback thorax
    thorax lowerneck lclavicle rclavicle
    lowerneck upperneck
    upperneck head
    lclavicle lhumerus
    lhumerus lradius
    lradius lwrist
    lwrist lhand lthumb
    lhand lfingers
    rclavicle rhumerus
    rhumerus rradius
    rradius rwrist
    rwrist rhand rthumb
    rhand rfingers
  end

#!OML:ASF G:\JayActor3\Patient Classification 1\Patient 1\Session 6\male.ASF
:FULLY-SPECIFIED
:DEGREES
234
root 43.8026 15.9298 13.5512 176.796 -44.8517 -175.197
lowerback -5.41904 -6.90968 2.15491
upperback -1.68347 -9.72037 5.76193
thorax 1.92471 -4.97623 4.0308
lowerneck -0.724592 6.84623 8.05726
upperneck -0.00413283 9.10044 -9.47391
head 1.02742 4.49915 -4.40087
rclavicle 1.07443e-013 -4.77083e-014
rhumerus -46.6925 -18.8504 -61.8814
rradius 22.1853
rwrist 3.43291
rhand -18.1806 -6.63355
rfingers 7.12502
rthumb 8.09604 -36.4585
lclavicle 1.07443e-013 -4.77083e-014
lhumerus -34.7485 20.8597 86.8553
lradius 19.6286
lwrist 9.02384
lhand -9.76391 12.2138
lfingers 7.12502
lthumb 16.211 41.556
rfemur -23.5298 10.6249 31.8391
rtibia 35.5184
rfoot -13.8816 -15.2701
rtoes 5.88629
lfemur 32.4796 13.9044 -16.8611
ltibia -2.8625e-014
lfoot 0.898933 7.00385
ltoes -32.8596
235
root 43.7163 15.9395 13.4591 176.45 -44.9844 -174.906
lowerback -5.52892 -6.86662 2.22762
upperback -1.696 -9.67981 5.81518
thorax 1.96786 -4.95808 4.03609
lowerneck -0.795349 6.73116 7.96819
upperneck 0.0662626 8.94542 -9.32291
head 1.03434 4.42131 -4.33207
rclavicle 1.10127e-013 -6.99722e-014
rhumerus -46.6095 -18.5898 -62.1229
rradius 22.226
rwrist 3.33487
rhand -18.2143 -6.63686
rfingers 7.12502
rthumb 8.0635 -36.463
lclavicle 1.10127e-013 -6.99722e-014
lhumerus -35.1986 20.6749 86.8189
lradius 19.7034
lwrist 9.26705
lhand -10.0203 12.075
lfingers 7.12502
lthumb 15.9641 41.4371
rfemur -22.7331 10.4016 32.1813
rtibia 35.2587
rfoot -14.1629 -15.1576
rtoes 6.21682
lfemur 32.9004 13.599 -16.5463
ltibia 3.49861e-014
lfoot 2.19589 7.22687
ltoes -32.7359
236
root 43.6308 15.9483 13.3679 176.122 -45.1474 -174.636
lowerback -5.63599 -6.82265 2.28523
upperback -1.70648 -9.63593 5.85824
thorax 2.01205 -4.9378 4.03964
lowerneck -0.862057 6.60489 7.8629
upperneck 0.120393 8.77464 -9.16412
head 1.03284 4.33579 -4.2585
rclavicle 9.29318e-014 3.49861e-014
rhumerus -46.5263 -18.3811 -62.3483
rradius 22.262
rwrist 3.26754
rhand -18.2381 -6.64272
rfingers 7.12502
rthumb 8.04052 -36.4698
lclavicle 9.29318e-014 3.49861e-014
lhumerus -35.611 20.4371 86.7954
lradius 19.7862
lwrist 9.47511
lhand -10.2096 11.9652
lfingers 7.12502
lthumb 15.7818 41.3419
rfemur -21.9585 10.0915 32.5006
rtibia 35.0132
rfoot -14.4568 -14.9964
rtoes 6.45496
lfemur 33.2959 13.2686 -16.2673
ltibia 2.22639e-014
lfoot 3.56119 7.57024
ltoes -32.3875
237
root 43.5471 15.9562 13.2781 175.83 -45.3493 -174.436
lowerback -5.70849 -6.78328 2.27927
upperback -1.7129 -9.5898 5.88184
thorax 2.04798 -4.91564 4.0617
lowerneck -0.927902 6.47005 7.74651
upperneck 0.148602 8.591 -8.99345
head 1.0208 4.24407 -4.17961
rclavicle 4.76089e-014 -2.70347e-014
rhumerus -46.4387 -18.2295 -62.5577
rradius 22.2864
rwrist 3.2425
rhand -18.2435 -6.63678
rfingers 7.12502
rthumb 8.03535 -36.464
lclavicle 4.76089e-014 -2.70347e-014
lhumerus -35.9838 20.1404 86.7885
lradius 19.8806
lwrist 9.66855
lhand -10.3895 11.8581
lfingers 7.12502
lthumb 15.6085 41.2483
rfemur -21.1971 9.70333 32.7591
rtibia 34.7862
rfoot -14.7701 -14.8019
rtoes 6.63119
lfemur 33.6773 12.9077 -16.0588
ltibia 5.08889e-014
lfoot 5.0059 8.05046
ltoes -31.8239
238
root 43.4647 15.9629 13.1892 175.544 -45.5771 -174.246
lowerback -5.76521 -6.74196 2.25539
upperback -1.71313 -9.53797 5.89586
thorax 2.08237 -4.8902 4.08571
lowerneck -0.995871 6.32384 7.63433
upperneck 0.155883 8.39095 -8.82336
head 1.00171 4.14421 -4.10266
rclavicle -3.58806e-014 -1.43125e-014
rhumerus -46.3417 -18.1281 -62.7612
rradius 22.2943
rwrist 3.24501
rhand -18.242 -6.61982
rfingers 7.12502
rthumb 8.03674 -36.447
lclavicle -3.58806e-014 -1.43125e-014
lhumerus -36.3149 19.7914 86.7923
lradius 19.9861
lwrist 9.85317
lhand -10.559 11.7418
lfingers 7.12502
lthumb 15.4452 41.1447
rfemur -20.452 9.25999 33.0003
rtibia 34.5709
rfoot -15.0996 -14.5839
rtoes 6.75535
lfemur 34.0403 12.5255 -15.8754
ltibia -4.77083e-014
lfoot 6.52979 8.66185
ltoes -31.065
239
root 43.3845 15.9684 13.1012 175.265 -45.8222 -174.062
lowerback -5.79753 -6.69681 2.2095
upperback -1.71019 -9.47739 5.90389
thorax 2.10838 -4.8602 4.11916
lowerneck -1.08311 6.1715 7.51286
upperneck 0.163114 8.18175 -8.63191
head 0.984303 4.03962 -4.01611
rclavicle 4.27387e-014 -8.42847e-014
rhumerus -46.2303 -18.0774 -62.9645
rradius 22.2812
rwrist 3.26446
rhand -18.2461 -6.60327
rfingers 7.12502
rthumb 8.03279 -36.4306
lclavicle 4.27387e-014 -8.42847e-014
lhumerus -36.6035 19.3863 86.808
lradius 20.1082
lwrist 10.0444
lhand -10.7088 11.6691
lfingers 7.12502
lthumb 15.301 41.0831
rfemur -19.7276 8.79984 33.2308
rtibia 34.3605
rfoot -15.4261 -14.3761
rtoes 6.80539
lfemur 29.7536 12.2783 -15.6554
ltibia 8.53551
lfoot 4.21444 8.93541
ltoes -30.1537
240
root 43.3066 15.9725 13.0142 174.983 -46.0794 -173.868
lowerback -5.80126 -6.64548 2.15089
upperback -1.70587 -9.40572 5.90987
thorax 2.12082 -4.82464 4.16198
lowerneck -1.19366 6.01224 7.39339
upperneck 0.176991 7.96244 -8.43319
head 0.972852 3.92962 -3.92701
rclavicle -4.45278e-014 -3.18055e-014
rhumerus -46.1037 -18.0529 -63.1802
rradius 22.2501
rwrist 3.28587
rhand -18.2578 -6.57352
rfingers 7.12502
rthumb 8.02157 -36.4013
lclavicle -4.45278e-014 -3.18055e-014
lhumerus -36.8531 18.93 86.8339
lradius 20.2502
lwrist 10.2359
lhand -10.8657 11.6128
lfingers 7.12502
lthumb 15.1498 41.0382
rfemur -19.0216 8.34484 33.4626
rtibia 34.1483
rfoot -15.7511 -14.1907
rtoes 6.80544
lfemur 27.668 11.9265 -15.3909
ltibia 12.9865
lfoot 3.88297 9.31937
ltoes -29.105
241
root 43.2308 15.9752 12.928 174.678 -46.3402 -173.623
lowerback -5.78983 -6.58241 2.11415
upperback -1.70052 -9.31933 5.919
thorax 2.12195 -4.78186 4.1996
lowerneck -1.33749 5.84952 7.26757
upperneck 0.20962 7.73782 -8.20631
head 0.972057 3.81666 -3.82592
rclavicle 5.23798e-014 -5.08889e-014
rhumerus -45.9607 -18.0551 -63.4156
rradius 22.1994
rwrist 3.31686
rhand -18.2786 -6.54785
rfingers 7.12502
rthumb 8.00142 -36.3764
lclavicle 5.23798e-014 -5.08889e-014
lhumerus -37.0604 18.4217 86.8654
lradius 20.411
lwrist 10.4284
lhand -11.0054 11.6076
lfingers 7.12502
lthumb 15.0153 41.0432
rfemur -18.3408 7.90458 33.7264
rtibia 33.9341
rfoot -16.0838 -14.0269
rtoes 6.79844
lfemur 25.933 12.0785 -14.7757
ltibia 16.8458
lfoot 4.01712 9.08379
ltoes -28.0415
242
root 43.1566 15.9765 12.8423 174.376 -46.6083 -173.374
lowerback -5.75763 -6.51041 2.06843
upperback -1.69814 -9.21841 5.92282
thorax 2.10788 -4.73166 4.24074
lowerneck -1.47633 5.67685 7.14029
upperneck 0.231245 7.49981 -7.97291
head 0.966205 3.69735 -3.72338
rclavicle 8.84592e-014 3.81667e-014
rhumerus -45.8083 -18.0608 -63.672
rradius 22.1314
rwrist 3.3491
rhand -18.2854 -6.51268
rfingers 7.12502
rthumb 7.99485 -36.3415
lclavicle 8.84592e-014 3.81667e-014
lhumerus -37.2406 17.8654 86.9016
lradius 20.5926
lwrist 10.6287
lhand -11.1435 11.6134
lfingers 7.12502
lthumb 14.8822 41.0588
rfemur -17.6712 7.48179 33.9876
rtibia 33.7118
rfoot -16.4279 -13.8827
rtoes 6.80958
lfemur 24.2831 12.2313 -14.1363
ltibia 20.5003
lfoot 4.40295 8.75833
ltoes -26.9181
243
root 43.0841 15.9766 12.7575 174.1 -46.8893 -173.155
lowerback -5.69723 -6.43317 1.99208
upperback -1.7008 -9.10527 5.91567
thorax 2.07481 -4.67498 4.292
lowerneck -1.60265 5.49466 7.00967
upperneck 0.235588 7.24915 -7.73753
head 0.95226 3.5721 -3.62085
rclavicle 2.16377e-013 -1.35174e-013
rhumerus -45.6411 -18.0546 -63.9583
rradius 22.0481
rwrist 3.38519
rhand -18.2884 -6.49146
rfingers 7.12502
rthumb 7.99195 -36.3204
lclavicle 2.16377e-013 -1.35174e-013
lhumerus -37.399 17.2742 86.9389
lradius 20.8011
lwrist 10.8295
lhand -11.2909 11.6303
lfingers 7.12502
lthumb 14.7402 41.0862
rfemur -17.0088 7.07578 34.2198
rtibia 33.4766
rfoot -16.7801 -13.7589
rtoes 6.8537
lfemur 22.6455 12.3378 -13.5258
ltibia 24.0655
lfoot 4.99006 8.37709
ltoes -25.7123
